<?xml version="1.0" encoding="UTF-8" standalone="no"?><svg xmlns="http://www.w3.org/2000/svg" xmlns:xlink="http://www.w3.org/1999/xlink" width="128" height="128" version="1.1"><defs><filter x="-.35134313" y="-.36891031" width="1.7026863" id="x" height="1.7378206"><feGaussianBlur stdDeviation="3.9028595"/></filter><filter x="-.35134313" y="-.36891031" width="1.7026863" id="w" height="1.7378206"><feGaussianBlur stdDeviation="3.9028595"/></filter><filter x="-.35134313" y="-.36891031" width="1.7026863" id="A" height="1.7378206"><feGaussianBlur stdDeviation="3.9028595"/></filter><filter x="-.35134313" y="-.36891031" width="1.7026863" id="B" height="1.7378206"><feGaussianBlur stdDeviation="3.9028595"/></filter><filter x="-.29278594" y="-.30742526" width="1.5855719" id="y" height="1.6148505"><feGaussianBlur stdDeviation="3.2523829"/></filter><linearGradient id="f"><stop offset="0" stop-color="#fff" stop-opacity=".30000001"/><stop offset="1" stop-color="#fff" stop-opacity="0"/></linearGradient><linearGradient id="e"><stop offset="0" stop-color="#fff"/><stop offset=".5" stop-color="#fff" stop-opacity=".49803922"/><stop offset="1" stop-color="#fff" stop-opacity="0"/></linearGradient><linearGradient id="d"><stop offset="0" stop-color="#fff"/><stop offset="1" stop-color="#fff" stop-opacity="0"/></linearGradient><linearGradient id="c"><stop offset="0" stop-color="#fff"/><stop offset="1" stop-color="#fff" stop-opacity="0"/></linearGradient><linearGradient id="b"><stop offset="0" stop-color="#fff"/><stop offset="1" stop-color="#fff" stop-opacity="0"/></linearGradient><linearGradient id="a"><stop offset="0" stop-color="#fff"/><stop offset="1" stop-color="#fff" stop-opacity="0"/></linearGradient><linearGradient gradientTransform="matrix(-.138 -.1 .097 -.145 70.41 129.918)" y2="257.83203" x2="239.90234" y1="257.83203" x1="210.78125" gradientUnits="userSpaceOnUse" id="z" xlink:href="#a"/><linearGradient gradientTransform="matrix(-.804 -1.653 -.153 .002 282.94 447.018)" y2="252.88338" x2="242.75851" y1="252.88338" x1="213.27011" gradientUnits="userSpaceOnUse" id="v" xlink:href="#b"/><linearGradient gradientTransform="matrix(-.34 0 0 .186 136.537 23.33)" y2="252.88338" x2="242.87742" y1="252.88338" x1="213.15121" gradientUnits="userSpaceOnUse" id="u" xlink:href="#c"/><linearGradient gradientTransform="matrix(-.01 -.14 -.28 .006 166.765 125.5)" y2="360.66406" x2="365.625" y1="360.66406" x1="149.80469" gradientUnits="userSpaceOnUse" id="t" xlink:href="#d"/><linearGradient y2="158.15402" x2="398.27032" y1="158.15402" x1="84.270332" spreadMethod="reflect" gradientTransform="matrix(-.023 .117 -.25 -.015 106.412 26.503)" gradientUnits="userSpaceOnUse" id="s" xlink:href="#e"/><linearGradient y2="478.36218" x2="369" y1="614.86218" x1="369" gradientTransform="matrix(.18 0 0 .194 -5.323 -12.613)" gradientUnits="userSpaceOnUse" id="r" xlink:href="#f"/><filter id="q"><feGaussianBlur stdDeviation="1.1122527"/></filter><filter id="C"><feGaussianBlur stdDeviation=".37075089"/></filter><radialGradient r="379.76288" fy="482.36795" fx="1188.8058" cy="482.36795" cx="1188.8058" gradientTransform="matrix(-.065 -.068 .037 -.035 152.6 124.077)" gradientUnits="userSpaceOnUse" id="p" xlink:href="#g"/><linearGradient id="g"><stop offset="0" stop-color="#b6b6b6" stop-opacity=".50980395"/><stop offset="1" stop-color="#b6b6b6" stop-opacity="0"/></linearGradient><linearGradient y2="265.03156" x2="1389.2557" y1="315.07806" x1="1340.1351" gradientTransform="matrix(.062 0 0 .062 8.685 .357)" gradientUnits="userSpaceOnUse" id="o" xlink:href="#h"/><linearGradient id="h"><stop offset="0" stop-color="#fff" stop-opacity=".90196079"/><stop offset="1" stop-color="#b0aeae"/></linearGradient><linearGradient y2="1988.1707" x2="768.49084" y1="1887.8104" x1="767.15399" gradientTransform="matrix(.065 0 0 .065 10.193 .362)" gradientUnits="userSpaceOnUse" id="l" xlink:href="#i"/><linearGradient id="i"><stop offset="0" stop-color="#9c9a9a"/><stop offset="1" stop-color="#9c9a9a" stop-opacity="0"/></linearGradient><radialGradient r="806.302" fy="1804.7415" fx="1607.4192" cy="1804.7415" cx="1607.4192" gradientTransform="matrix(0 -.057 .118 0 -104.363 215.19)" gradientUnits="userSpaceOnUse" id="m" xlink:href="#j"/><linearGradient id="j"><stop offset="0" stop-color="#d4d4d4"/><stop offset="1" stop-color="#fff"/></linearGradient><linearGradient y2="541.89899" x2="838.08698" y1="1954.358" x1="838.08698" gradientTransform="matrix(.062 0 0 .062 8.685 .357)" gradientUnits="userSpaceOnUse" id="n" xlink:href="#k"/><linearGradient id="k"><stop offset="0" stop-color="#e8e8e8"/><stop offset="1" stop-color="#fff"/></linearGradient></defs><path d="M8.72949 122.02839c.0115 2.71118.11756 5.71646 3.34146 5.97161h94.68093c1.20485 0 4.09361-2.60074 4.04778-5.25762l-102.07017-.71399z" fill="url(#l)" fill-rule="evenodd"/><path d="M10.32116 1.993075C9.30274 2.637126 8.6854 3.757997 8.6854 4.962916V121.70486c0 .93193.37022 1.82573 1.02921 2.48472.65898.65903 1.55276 1.02919 2.48472 1.02919h94.68093c1.20485 0 2.32579-.61733 2.96984-1.63575L10.32116 1.993075z" fill="#bbb" fill-rule="evenodd"/><path d="M111.4858 33.599615c0-1.397937-.55529-2.73859-1.54378-3.727084L81.970698 1.901149C80.98215.912668 79.641493.357373 78.24362.357373H13.29095c-.9319 0-1.82567.37023-2.48472 1.029217-.65899.658987-1.02921 1.552757-1.02921 2.48471v116.74199c0 .9319.37022 1.82567 1.02921 2.48472.65898.65899 1.55276 1.02915 2.48472 1.02915h94.68099c.93195 0 1.82573-.37023 2.48472-1.02915.65898-.65905 1.02914-1.55282 1.02914-2.48472V33.599615z" fill="#9c9a9a" fill-rule="evenodd"/><path d="M110.60733 35.702156c0-1.397937-.55529-2.738591-1.54377-3.727085-.98849-.988468-2.32915-1.543764-3.72708-1.543764H83.782482c-1.455515 0-2.635457-1.179951-2.635457-2.635468V6.506694c0-1.397925-.555358-2.738603-1.543777-3.727072-.988485-.988494-2.329148-1.543777-3.727079-1.543777H13.29095c-.69897 0-1.3693.27761-1.86354.771907-.49424.494259-.77192 1.16458-.77192 1.863548v116.74199c0 .6989.27768 1.3693.77192 1.86347.49424.49425 1.16457.77192 1.86354.77192h94.68099c.6989 0 1.36929-.27767 1.86347-.77192.49431-.49423.77192-1.16457.77192-1.86347V35.702156z" fill="url(#m)" fill-rule="evenodd"/><path d="M108.85034 33.94516H12.41248v84.03261c0 .93195.37022 1.82574 1.02921 2.48471.65898.65899 1.55276 1.02922 2.48472 1.02922h89.41007c.93195 0 1.82573-.37028 2.48471-1.02922.659-.65892 1.02915-1.55276 1.02915-2.48471V33.94516z" fill="url(#n)" fill-rule="evenodd"/><path d="M82.025489 3.198366v24.597473c0 .465983.185079.912867.514636 1.242374.329492.329481.776384.514559 1.242357.514559h24.597478L82.025489 3.198366z" fill="url(#o)" fill-rule="evenodd"/><path d="M105.33549 30.410326H83.778741c-1.455696 0-2.635786-1.180095-2.635786-2.635802V6.482733c0-1.398111-.555435-2.738943-1.543978-3.727558-.988606-.988607-2.329457-1.543967-3.727556-1.543967H26.862202l1.090362 78.028051 82.654396 2.907631V35.681851c0-1.398112-.55538-2.738944-1.54398-3.72755-.98854-.988554-2.32938-1.543975-3.72749-1.543975z" fill="url(#p)" fill-rule="evenodd"/><path d="M97.967976 72.000331a37.075089 37.075089 0 0 1-74.15017 0 37.075089 37.075089 0 1 1 74.15017 0z" filter="url(#q)"/><path d="M97.967976 70.500002a37.075089 37.075089 0 0 1-74.15017 0 37.075089 37.075089 0 1 1 74.15017 0z" fill="#21319f"/><path d="M29.843576 73.724875c2.799692 16.056067 4.862358 32.601925 31.178321 33.030185 28.706993-4.48727 29.18266-17.843532 32.265938-30.310052-7.537492 12.339168-17.385946 21.427232-32.628476 22.926834-18.116294-.872067-23.267849-14.432129-30.815783-25.646967z" fill="url(#r)"/><path d="M94.303198 65.68469s-.490847 2.454238-.911573 2.734723c-.420727.280484-2.594482 2.59448-2.594482 2.59448l-.420727 1.402421.210364 4.067024-1.963391 3.015208-.490847 2.874965-1.402423 1.823148H82.87346l-2.454239-1.332301-1.192058-2.594479-.701212-1.682908.210364-2.033512.841453-2.103633-1.262179-3.085327v-2.734723l-2.945088-.631091-3.92678.07012-3.506055-3.435935-.07012-5.048718 2.033512-3.365812 3.155449-2.804845 5.539566-.210364 2.454238 1.963391 5.890173-.210362v-.701211l-2.173755-2.52436h-.981694l-.490848.631089s-.280485-.701209-.280485-.420726c0 .280485.140242.841453.140242.841453l-.841453-1.192059v.911576l-.683011-.640182-1.250139-2.298645-.68556.04033-.362943.483926.806541 1.250139 1.129158.96785-.08065.403271-.564578-.403271-.16131.362943.04033.483926-.443598-.161308.04033-.725888-1.693737-2.459952-2.459952-.120982-.887196.84687-.524251 1.935698-1.008178.241964-.201635.524252-2.056681-.56458v-3.18584l.443599-.443597c.338203-.164133.999686-.166792 2.177661-.12098.733144-.05996.432895-1.153304 0-2.379299l-.524252-.28229.524252-.322616.806542.12098 2.097008-.725887 1.169486-1.290465 1.250139-1.613085.685561.16131.766214-.725888.756065-1.720534c1.802895 1.540028 3.722309 3.092686 5.116465 4.614202 5.976126 6.038587 9.995612 12.55052 9.639596 17.837834-.991476.06407-.977455.689817-1.580944 1.335869l-2.276655.0722-2.258317-2.661588-2.097009-3.226166 1.814719 3.750419 1.774393 3.145512h2.863222l-.109967.676318zm-34.108795 7.000157l-.393592 1.705568-1.443176 1.836768-.131196 2.492756-2.886349 2.623953-.524791 2.23036-2.492756 2.361559-2.886348 1.836765-.655988 2.886349-.52479 3.017547.655988 2.492756-2.361559-.262396-.787185-1.049581s-1.180779-1.70557-.918384-2.492755c.262396-.787187.262396-6.297488.262396-6.297488l.262396-4.067128s-.131649-2.678522-.393595-3.279941c-.199027-.456961-3.134856-3.196574-2.782283-3.549147l-.760053-2.617142.131199-2.361559 1.443173-1.836768-3.279941-2.75515-.350606-1.931787-3.454126-1.216957-2.755152-2.492755-1.180777-4.067128.262393-5.116709c-.800531 1.370533-.776408 2.905997-.655988 4.460721l-.328979.281573-.210364-1.823149-.350606-1.823148 1.26218-3.015206s3.868422-3.695021 4.137144-3.856662c.466294-.280483.313471-1.24804.218847-1.24804l4.80471-3.890306 2.339158 2.613987.701212 1.472544s.771447.06213 1.051817.07012c.658353.01877 1.490707-4.702606 1.192059-4.838356l2.313994.841453 2.384118-.210363 2.313997 3.435933-1.396767 2.759885.555314.04496 1.402421.07012-.210362 1.612786-1.753029-.841453v-.911574h-2.313995l.07012.911574 1.542664.841453-.490849 1.963391-1.682906-.631091-1.682906 1.402423-1.472542.490847-.280485 1.542665-.771332 1.3323-1.89327 1.402421-.280484.981697.420727 1.051815-.280485.350606-.631091-.07012-.420726-1.121938-.490848-.560968-1.963391.210362-2.524359.981697-.631089 2.454238.420727.631089 1.753027.350606.490847-.841454 2.033512-.07012-.771332 1.121938.841453 1.262179 1.051817.490848-.490847 1.051815 1.262179 1.542664 1.893269-.841453 4.137146-.07012 1.121936 1.753026 2.454238.981697 1.753029 1.262179 1.682906 1.893269 2.524359.631091 1.793206 2.021559z" opacity=".7" fill="#e3e6f1"/><path d="M49.706182 61.687791a.77133226.56096895 0 0 1-1.542665 0 .77133226.56096895 0 1 1 1.542665 0z" opacity=".7" fill="#e3e6f1"/><path d="M62.944406 33.852451c16.362328 2.608882 26.225541 8.474651 24.62653 20.084453-4.540003 15.637885-18.393748 15.241543-31.165944 16.70717-20.350222-4.038531-21.011645-11.485141-21.559784-18.951365 1.332863-14.085343 14.025663-16.662196 28.099198-17.840258z" fill="url(#s)"/><path d="M53.773207 59.198489a.17530274.24542383 0 1 1-.02665-.130083m-7.265946 1.357202c.400336.875153 1.693054 1.320939-.981694 1.472543-1.209384-.155171-1.486119-1.484278-3.365814-2.454238 1.747683-.419054 2.933847.565692 4.347508.981695zm7.573079-3.506058a.17530274.49084767 0 1 1-.02665-.260164m-.183714 9.796636a.2103633.2103633 0 1 1-.03198-.1115m-.879595-.063805a.0701211.17530274 0 1 1-.01066-.09292m12.562338.478588a.35060548.35060548 0 1 1-.0533-.185832m-.788157 1.167528a.17530274.35060548 0 1 1-.02665-.185833m-.394072 1.167528a.1402422.2103633 0 1 1-.02132-.1115m29.892904 6.8216l-1.963391 1.753029-1.121936 3.015206.70121 1.542665 1.682908-.981697.631088-2.103632.490848-1.612786-.420727-1.612785zm-19.076995-31.26126l-.483925.201636-.483926.322615-.604906.322618-.403271-.28229.241963-.685561-.443597-1.008176-.08065-.887197-.120982-.564578-.524252-.201636.443598-.403271h.927523v.483925l.887196 1.25014.685559.725887-.04033.725888zm-2.580934.241962l.08065-.604906-.161308-.725888-.483926-.04033-.806541.524252-.08065.725888s.604906.282289.806541.282289c.201636 0 .645234-.161309.645234-.161309zm-5.68153-9.717639c.000186.652646-2.464541 2.257129-2.464541 2.257129l-3.508456 1.048504-1.209813 1.9357s-1.572755.241962-1.734063.04033c-.16131-.201636-1.209813-1.572757-1.209813-1.572757s-1.947276-.565536-1.774391-.887195c.311806-.580127-3.705786-2.066546-3.857238-1.945382 4.138895-1.188362 9.832081-1.824725 15.758315-.876327zm-.609494 6.007547l1.330793.04033.483926-.524252.12098-.725887-1.048504-.161308-1.250139.161308-.564579.564579.04033.08065.887195.564578z" opacity=".7" fill="#e3e6f1"/><path d="M61.906609 76.79512c-11.406767.23341-20.165743 7.131988-19.563721 15.408406.602023 8.276414 10.337069 14.796564 21.743837 14.563154 11.406767-.23341 20.165743-7.13199 19.563721-15.408407-.602023-8.276418-10.337069-14.796563-21.743837-14.563153z" opacity=".46835441" fill="url(#t)" fill-rule="evenodd"/><path d="M54.495666 70.383012c0 18.44965 2.176669 33.406048 4.861729 33.406048 2.685056 0 4.861725-14.956398 4.861725-33.406048s-2.176669-33.406046-4.861725-33.406046c-2.68506 0-4.861729 14.956396-4.861729 33.406046z" fill="none" stroke="url(#u)" stroke-width=".93032926"/><path d="M49.3935 46.871077c-15.183045.197991-22.322403 10.988283-15.946198 24.100804C39.8235 84.084386 57.30072 94.553671 72.483765 94.35568c15.183044-.197991 22.322404-10.988283 15.946206-24.100787C82.053766 57.142371 64.576545 46.673086 49.3935 46.871077z" fill="none" stroke="url(#v)" stroke-width=".93032926"/><path d="M206.93359 339.08203c0 7.01143-5.96808 12.69531-13.33007 12.69531-7.362 0-13.33008-5.68388-13.33008-12.69531 0-7.01143 5.96808-12.69531 13.33008-12.69531 7.36199 0 13.33007 5.68388 13.33007 12.69531z" transform="matrix(.184 0 0 .19 27.47 -13.862)" fill="#fff" fill-rule="evenodd" filter="url(#w)"/><path d="M206.93359 339.08203c0 7.01143-5.96808 12.69531-13.33007 12.69531-7.362 0-13.33008-5.68388-13.33008-12.69531 0-7.01143 5.96808-12.69531 13.33008-12.69531 7.36199 0 13.33007 5.68388 13.33007 12.69531z" transform="matrix(.164 0 0 .17 23.595 -8.89)" fill="#fff" fill-rule="evenodd" filter="url(#x)"/><path d="M206.93359 339.08203c0 7.01143-5.96808 12.69531-13.33007 12.69531-7.362 0-13.33008-5.68388-13.33008-12.69531 0-7.01143 5.96808-12.69531 13.33008-12.69531 7.36199 0 13.33007 5.68388 13.33007 12.69531z" transform="matrix(.264 0 0 .272 1.062 -3.576)" fill="#fff" fill-rule="evenodd" filter="url(#y)"/><path d="M62.511374 68.473353c9.81709-14.740691 18.521323-26.14311 19.441449-25.468017.920127.675094-6.292285 13.172056-16.109374 27.912747s-18.521322 26.143109-19.44145 25.468015c-.920126-.675093 6.292286-13.172054 16.109375-27.912745z" fill="none" stroke="url(#z)" stroke-width=".86336434"/><path d="M206.93359 339.08203c0 7.01143-5.96808 12.69531-13.33007 12.69531-7.362 0-13.33008-5.68388-13.33008-12.69531 0-7.01143 5.96808-12.69531 13.33008-12.69531 7.36199 0 13.33007 5.68388 13.33007 12.69531z" transform="matrix(.205 0 0 .21 35.462 -15.075)" fill="#fff" fill-rule="evenodd" filter="url(#A)"/><path d="M206.93359 339.08203c0 7.01143-5.96808 12.69531-13.33007 12.69531-7.362 0-13.33008-5.68388-13.33008-12.69531 0-7.01143 5.96808-12.69531 13.33008-12.69531 7.36199 0 13.33007 5.68388 13.33007 12.69531z" transform="matrix(.225 0 0 .232 20.184 -5.08)" fill="#fff" fill-rule="evenodd" filter="url(#B)"/><path d="M53.326456 104.62421c4.18415-2.92057 2.098348-3.21497 3.792772-3.76412 2.588767-.83899 8.066373 1.25866 8.066373 1.25866s4.127182 1.33258 6.200384 1.8576c1.133753.28711 1.947279-2.5561 3.116259-2.51978 2.173524.0675 4.273597 1.09409 4.273597 1.09409s-2.810364.8517-3.507633 1.45435c-1.402576 1.21225-5.517113 1.95544-7.827699 2.37301-2.310585.41758-4.751536.31055-7.098785.25055-2.686642-.0687-7.68339-.83515-7.68339-.83515s-3.244566-.12437-4.509817-1.00218c-1.091193-.75706-2.901519.28947-2.880043-2.39574.01068-1.33417 1.848002.64031 3.682668 1.1767 2.06662.60421 4.375314 1.05201 4.375314 1.05201z" opacity=".7" fill="#e3e6f1"/><path d="M97.967976 70.500002a37.075089 37.075089 0 0 1-74.15017 0 37.075089 37.075089 0 1 1 74.15017 0z" fill="none" stroke="#21319f" filter="url(#C)"/></svg>