<?xml version="1.0" encoding="UTF-8" standalone="no"?>
<svg
   width="28"
   height="28.000023"
   version="1.1"
   id="svg3"
   sodipodi:docname="JSON_vector_logo20x20.svg"
   inkscape:version="1.4 (e7c3feb100, 2024-10-09)"
   xmlns:inkscape="http://www.inkscape.org/namespaces/inkscape"
   xmlns:sodipodi="http://sodipodi.sourceforge.net/DTD/sodipodi-0.dtd"
   xmlns:xlink="http://www.w3.org/1999/xlink"
   xmlns="http://www.w3.org/2000/svg"
   xmlns:svg="http://www.w3.org/2000/svg"
   xmlns:rdf="http://www.w3.org/1999/02/22-rdf-syntax-ns#"
   xmlns:cc="http://creativecommons.org/ns#"
   xmlns:dc="http://purl.org/dc/elements/1.1/">
  <sodipodi:namedview
     id="namedview3"
     pagecolor="#ffffff"
     bordercolor="#666666"
     borderopacity="1.0"
     inkscape:showpageshadow="2"
     inkscape:pageopacity="0.0"
     inkscape:pagecheckerboard="0"
     inkscape:deskcolor="#d1d1d1"
     inkscape:zoom="2.571875"
     inkscape:cx="5.054678"
     inkscape:cy="8.7484812"
     inkscape:window-width="1920"
     inkscape:window-height="1026"
     inkscape:window-x="0"
     inkscape:window-y="0"
     inkscape:window-maximized="1"
     inkscape:current-layer="svg3" />
  <title
     id="title1">JSON logo</title>
  <defs
     id="defs2">
    <linearGradient
       id="linearGradient8385">
      <stop
         offset="0"
         id="stop1" />
      <stop
         stop-color="#fff"
         offset="1"
         id="stop2" />
    </linearGradient>
    <linearGradient
       id="linearGradient3002"
       x1="-553.27002"
       x2="-666.12"
       y1="525.90997"
       y2="413.04999"
       gradientTransform="matrix(0.99884,0,0,0.9987,689.01,-388.84)"
       gradientUnits="userSpaceOnUse"
       xlink:href="#linearGradient8385" />
    <linearGradient
       id="linearGradient3005"
       x1="-666.12"
       x2="-553.27002"
       y1="413.04001"
       y2="525.90997"
       gradientTransform="matrix(0.99884,0,0,0.9987,689.01,-388.84)"
       gradientUnits="userSpaceOnUse"
       xlink:href="#linearGradient8385" />
  </defs>
  <g
     fill-rule="evenodd"
     id="g3"
     transform="matrix(0.175,0,0,0.175,0,2.2621585e-5)">
    <path
       d="m 79.865,119.1 c 35.398,48.255 70.04,-13.469 69.989,-50.587 C 149.7938,24.627 105.313,0.099 79.836,0.099 38.944,0.099 0,33.895 0,80.135 0,131.531 44.64,160 79.836,160 71.8715,158.8532 45.33,153.166 44.973,92.033 44.73313,50.686 58.461,34.167 79.778,41.434 c 0.47743,0.17707 23.514,9.2645 23.514,38.951 0,29.56 -23.427,38.715 -23.427,38.715 z"
       color="#000000"
       fill="url(#linearGradient3005)"
       id="path2"
       style="fill:url(#linearGradient3005)" />
    <path
       d="M 79.823,41.401 C 56.433,33.3391 27.78,52.617 27.78,91.23 27.78,154.278 74.501,160 80.164,160 121.056,160 160,126.204 160,79.964 160,28.568 115.36,0.099 80.164,0.099 c 9.7481,-1.35 52.541,10.55 52.541,69.037 0,38.141 -31.953,58.905 -52.735,50.033 -0.47743,-0.17707 -23.514,-9.2645 -23.514,-38.951 0,-29.56 23.367,-38.818 23.367,-38.818 z"
       color="#000000"
       fill="url(#linearGradient3002)"
       id="path3"
       style="fill:url(#linearGradient3002)" />
  </g>
  <metadata
     id="metadata3">
    <rdf:RDF>
      <cc:Work
         rdf:about="">
        <dc:title>JSON logo</dc:title>
      </cc:Work>
    </rdf:RDF>
  </metadata>
</svg>
